#!OML:ASF F:\VICON\USERDATA\INSTALL\rory3\rory3.ASF
:FULLY-SPECIFIED
:DEGREES
173
root 8.91246 17.8417 -1.83353 324.618 87.4555 327.595
lowerback 12.9254 0.986629 -0.952042
upperback 1.36701 1.22129 -0.199365
thorax -5.8246 0.645055 0.109181
lowerneck -9.01753 -10.8504 -14.1827
upperneck 32.296 -16.1045 13.3256
head 15.1644 -6.81348 5.36456
rclavicle 7.82715e-015 -1.19271e-015
rhumerus -31.8596 -10.3889 -76.4093
rradius 41.0411
rwrist -1.14714
rhand -19.1233 9.93006
rfingers 7.12502
rthumb 7.18614 -19.9279
lclavicle 7.82715e-015 -1.19271e-015
lhumerus -34.3761 16.4372 77.5693
lradius 30.4876
lwrist -7.67475
lhand -20.0398 25.1606
lfingers 7.12502
lthumb 6.30143 55.0469
rfemur -7.55679 4.79555 17.8656
rtibia 29.7981
rfoot -15.5604 0.532803
rtoes -3.32148
lfemur -10.9055 -7.92036 -15.0616
ltibia 42.4145
lfoot -19.0208 -9.10047
ltoes -14.2679
174
root 8.90558 17.831 -1.7852 325.35 87.4103 328.22
lowerback 12.8532 0.967771 -0.808248
upperback 1.36151 1.21885 -0.164149
thorax -5.7881 0.640518 0.066774
lowerneck -9.09222 -10.8332 -14.1415
upperneck 32.3237 -16.0417 13.2026
head 15.1617 -6.79225 5.3141
rclavicle 1.15047e-014 7.95139e-015
rhumerus -31.7523 -10.6659 -76.0667
rradius 40.9032
rwrist -1.44225
rhand -19.5405 9.83031
rfingers 7.12502
rthumb 6.78339 -20.041
lclavicle 1.15047e-014 7.95139e-015
lhumerus -34.4142 16.1126 77.9682
lradius 30.7164
lwrist -7.59564
lhand -19.8907 24.9812
lfingers 7.12502
lthumb 6.44529 54.8632
rfemur -7.99011 4.56097 18.0221
rtibia 30.3372
rfoot -15.7369 0.688982
rtoes -3.69304
lfemur -11.2011 -7.165 -16.0004
ltibia 42.2938
lfoot -19.6828 -10.3619
ltoes -14.5502
175
root 8.9032 17.8208 -1.73627 327.838 87.2931 330.59
lowerback 12.7295 1.00203 -0.722142
upperback 1.33794 1.27726 -0.142857
thorax -5.74341 0.666791 0.0323784
lowerneck -9.12063 -10.8129 -13.9865
upperneck 32.3241 -15.9831 13.0289
head 15.1166 -6.76689 5.22219
rclavicle -9.98893e-015 6.75868e-015
rhumerus -31.6869 -11.0224 -75.7334
rradius 40.7287
rwrist -1.64555
rhand -21.7226 8.42507
rfingers 7.12502
rthumb 4.67667 -21.5033
lclavicle -9.98893e-015 6.75868e-015
lhumerus -34.5062 15.7768 78.3224
lradius 31.008
lwrist -7.52542
lhand -19.975 25.1298
lfingers 7.12502
lthumb 6.36396 55.0142
rfemur -8.42607 4.48343 18.1474
rtibia 30.8843
rfoot -16.0202 0.79303
rtoes -3.70733
lfemur -11.4036 -6.36016 -16.9727
ltibia 41.9939
lfoot -20.2384 -11.5352
ltoes -14.6263
176
root 8.90288 17.812 -1.68916 334.23 87.1546 336.992
lowerback 12.6841 1.08127 -0.783266
upperback 1.35546 1.36892 -0.23768
thorax -5.69942 0.712271 -0.0475742
lowerneck -9.02724 -10.7822 -13.8807
upperneck 32.2535 -15.9569 13.0191
head 15.0424 -6.74938 5.20606
rclavicle -1.83876e-015 -1.59028e-015
rhumerus -31.6727 -11.3576 -75.5528
rradius 40.5985
rwrist -1.79133
rhand -21.4607 8.64763
rfingers 7.12502
rthumb 4.92955 -21.275
lclavicle -1.83876e-015 -1.59028e-015
lhumerus -34.5069 15.5104 78.5012
lradius 31.1895
lwrist -7.64333
lhand -20.0705 25.1755
lfingers 7.12502
lthumb 6.27178 55.0627
rfemur -8.71323 4.61422 18.093
rtibia 31.4233
rfoot -16.2794 0.790305
rtoes -3.67034
lfemur -11.3505 -5.65509 -18.1271
ltibia 41.504
lfoot -20.5993 -12.6767
ltoes -14.0818
177
root 8.90162 17.7967 -1.64361 338.152 87.084 340.958
lowerback 12.6337 1.08978 -0.801277
upperback 1.42312 1.37546 -0.321101
thorax -5.59837 0.715663 -0.124158
lowerneck -9.03182 -10.7414 -13.7143
upperneck 32.2127 -15.9055 12.9527
head 14.9862 -6.71622 5.1572
rclavicle -9.7156e-015 1.19271e-015
rhumerus -31.6122 -11.7831 -75.4047
rradius 40.4864
rwrist -1.82762
rhand -21.413 8.68757
rfingers 7.12502
rthumb 4.97557 -21.234
lclavicle -9.7156e-015 1.19271e-015
lhumerus -34.4185 15.1155 78.7122
lradius 31.2921
lwrist -7.69125
lhand -20.018 25.0961
lfingers 7.12502
lthumb 6.32241 54.9818
rfemur -8.94611 4.4446 18.0635
rtibia 31.95
rfoot -16.5407 0.99762
rtoes -3.9862
lfemur -11.2054 -5.31868 -19.1999
ltibia 40.8431
lfoot -20.9611 -13.4891
ltoes -14.2865
